<svg xmlns="http://www.w3.org/2000/svg" width="980" height="720" viewBox="0 0 980 720" role="img" aria-label="Recruitment dashboard with candidate cards and job metrics">
  <defs>
    <linearGradient id="bg" x1="50" y1="40" x2="900" y2="690" gradientUnits="userSpaceOnUse">
      <stop stop-color="#eef6ff"/>
      <stop offset=".55" stop-color="#f8fbff"/>
      <stop offset="1" stop-color="#e9fff8"/>
    </linearGradient>
    <filter id="shadow" x="-20%" y="-20%" width="140%" height="140%">
      <feDropShadow dx="0" dy="20" stdDeviation="24" flood-color="#174ea6" flood-opacity=".16"/>
    </filter>
  </defs>
  <rect width="980" height="720" rx="48" fill="url(#bg)"/>
  <rect x="86" y="74" width="810" height="572" rx="28" fill="#fff" filter="url(#shadow)"/>
  <rect x="86" y="74" width="810" height="70" rx="28" fill="#174ea6"/>
  <circle cx="137" cy="109" r="10" fill="#ffcf55"/>
  <circle cx="168" cy="109" r="10" fill="#3dd6bf"/>
  <circle cx="199" cy="109" r="10" fill="#ff7a70"/>
  <rect x="650" y="96" width="172" height="26" rx="13" fill="#dbeafe" opacity=".9"/>
  <rect x="124" y="182" width="248" height="176" rx="18" fill="#eff6ff"/>
  <rect x="150" y="210" width="120" height="18" rx="9" fill="#174ea6"/>
  <rect x="150" y="245" width="178" height="12" rx="6" fill="#7b8aa0"/>
  <rect x="150" y="271" width="138" height="12" rx="6" fill="#7b8aa0"/>
  <rect x="150" y="312" width="92" height="26" rx="13" fill="#00a88f"/>
  <rect x="410" y="182" width="430" height="176" rx="18" fill="#f8fafc"/>
  <rect x="444" y="300" width="52" height="28" rx="8" fill="#3dd6bf"/>
  <rect x="520" y="260" width="52" height="68" rx="8" fill="#1f6feb"/>
  <rect x="596" y="222" width="52" height="106" rx="8" fill="#174ea6"/>
  <rect x="672" y="248" width="52" height="80" rx="8" fill="#f59e0b"/>
  <rect x="748" y="204" width="52" height="124" rx="8" fill="#00a88f"/>
  <rect x="124" y="394" width="716" height="82" rx="18" fill="#fff" stroke="#d8e3f0"/>
  <circle cx="172" cy="435" r="25" fill="#dbeafe"/>
  <path d="M159 439c4-12 23-12 27 0v5h-27z" fill="#174ea6"/>
  <circle cx="173" cy="428" r="10" fill="#174ea6"/>
  <rect x="218" y="414" width="186" height="16" rx="8" fill="#174ea6"/>
  <rect x="218" y="444" width="130" height="12" rx="6" fill="#7b8aa0"/>
  <rect x="628" y="416" width="74" height="26" rx="13" fill="#ecfdf5"/>
  <rect x="724" y="416" width="82" height="26" rx="13" fill="#eff6ff"/>
  <rect x="124" y="500" width="716" height="82" rx="18" fill="#fff" stroke="#d8e3f0"/>
  <circle cx="172" cy="541" r="25" fill="#dcfce7"/>
  <path d="M159 545c4-12 23-12 27 0v5h-27z" fill="#00876f"/>
  <circle cx="173" cy="534" r="10" fill="#00876f"/>
  <rect x="218" y="520" width="164" height="16" rx="8" fill="#174ea6"/>
  <rect x="218" y="550" width="150" height="12" rx="6" fill="#7b8aa0"/>
  <rect x="628" y="522" width="74" height="26" rx="13" fill="#ecfdf5"/>
  <rect x="724" y="522" width="82" height="26" rx="13" fill="#eff6ff"/>
</svg>
