<svg xmlns="http://www.w3.org/2000/svg" width="960" height="540" viewBox="0 0 960 540" role="img" aria-label="CareerConnect home screenshot">
  <rect width="960" height="540" fill="#f4f7fb"/>
  <rect width="960" height="70" fill="#ffffff"/>
  <rect x="54" y="20" width="210" height="30" rx="8" fill="#174ea6"/>
  <rect x="568" y="24" width="72" height="20" rx="6" fill="#dbeafe"/>
  <rect x="660" y="24" width="72" height="20" rx="6" fill="#dbeafe"/>
  <rect x="752" y="24" width="72" height="20" rx="6" fill="#dbeafe"/>
  <rect x="54" y="112" width="390" height="62" rx="10" fill="#0f172a"/>
  <rect x="54" y="196" width="520" height="22" rx="8" fill="#64748b"/>
  <rect x="54" y="237" width="470" height="22" rx="8" fill="#94a3b8"/>
  <rect x="54" y="294" width="540" height="76" rx="8" fill="#ffffff" stroke="#d8e3f0"/>
  <rect x="78" y="318" width="260" height="28" rx="8" fill="#eff6ff"/>
  <rect x="358" y="318" width="130" height="28" rx="8" fill="#174ea6"/>
  <rect x="626" y="108" width="282" height="230" rx="18" fill="#ffffff" stroke="#d8e3f0"/>
  <rect x="656" y="142" width="222" height="28" rx="8" fill="#174ea6"/>
  <rect x="656" y="196" width="178" height="16" rx="8" fill="#94a3b8"/>
  <rect x="656" y="236" width="204" height="16" rx="8" fill="#94a3b8"/>
  <rect x="656" y="276" width="154" height="34" rx="8" fill="#00a88f"/>
  <rect x="54" y="420" width="852" height="72" rx="12" fill="#ffffff" stroke="#d8e3f0"/>
  <rect x="88" y="442" width="120" height="26" rx="8" fill="#dbeafe"/>
  <rect x="268" y="442" width="120" height="26" rx="8" fill="#ecfdf5"/>
  <rect x="448" y="442" width="120" height="26" rx="8" fill="#fff7ed"/>
  <rect x="628" y="442" width="120" height="26" rx="8" fill="#fee2e2"/>
</svg>
